# xmcd
#
# Track frame offsets: 
#        150
#        9508
#        22491
#        33981
#        49420
#        79560
#        90827
#        106070
#        121169
#        145221
#        162712
#        177384
#        192146
#
# Disc length: 2801 seconds
#
# Revision: 0
# Processed by: cddbd v1.4PL0 Copyright (c) Steve Scherf et al.
# Submitted via: ExactAudioCopy v0.95a3
#
DISCID=a40aef0d
DTITLE=Various Artist - Blues And Soul Bible [CD1)
DYEAR=1999
DGENRE=Soul
TTITLE0=Otis Redding - Shout Bama Lama
TTITLE1=Irma Thomas - Ruler Of My Heart
TTITLE2=Robert Parker - Barefootin'
TTITLE3=Chi-Lites - Oh, Girl
TTITLE4=James Brown - Sex Machine
TTITLE5=Michael Jackson - My Girl
TTITLE6=Aaron Neville - One Fine Day
TTITLE7=The Platters - The Great Pretender
TTITLE8=Bobby Womack - Falling In Love Again
TTITLE9=Curtis Mayfield - Superfly
TTITLE10=Lee Dorsey - Games People Play
TTITLE11=Allen Toussaint - Cast Your FateTo The Wind
TTITLE12=Nina Simone - You'll Never Walk Alone
EXTD=
EXTT0=
EXTT1=
EXTT2=
EXTT3=
EXTT4=
EXTT5=
EXTT6=
EXTT7=
EXTT8=
EXTT9=
EXTT10=
EXTT11=
EXTT12=
PLAYORDER=
